<?xml version="1.0" standalone="no"?>
<!DOCTYPE svg PUBLIC "-//W3C//DTD SVG 20010904//EN"
 "http://www.w3.org/TR/2001/REC-SVG-20010904/DTD/svg10.dtd">
<svg version="1.0" xmlns="http://www.w3.org/2000/svg"
 width="629.000000pt" height="500.000000pt" viewBox="0 0 629.000000 500.000000"
 preserveAspectRatio="xMidYMid meet">

<g transform="translate(0.000000,500.000000) scale(0.100000,-0.100000)"
fill="#000000" stroke="none">
<path d="M1075 4768 c-2 -7 -54 -263 -115 -568 -61 -305 -114 -565 -117 -577
l-5 -23 146 0 c116 0 146 -3 146 -14 0 -10 -435 -2017 -465 -2143 -5 -22 -9
-23 -140 -23 -74 0 -135 -2 -135 -5 0 -3 -56 -257 -125 -564 -69 -307 -125
-563 -125 -569 0 -9 207 -11 847 -10 l846 3 196 932 c108 512 199 934 202 937
3 3 149 -314 324 -704 175 -391 322 -709 327 -708 7 3 337 427 941 1210 67 87
123 154 125 150 1 -5 -79 -411 -178 -902 -99 -492 -180 -900 -180 -907 0 -11
157 -13 823 -13 l823 0 118 558 c65 306 120 567 123 580 5 22 5 22 -131 22
-75 0 -136 1 -135 3 0 1 102 490 227 1087 l228 1085 141 -4 141 -3 12 58 c92
433 227 1100 223 1103 -2 3 -360 5 -795 5 l-791 1 -306 -396 c-168 -218 -456
-590 -639 -827 -184 -238 -337 -432 -341 -432 -6 0 -452 1160 -638 1658 -4 9
-173 12 -799 12 -627 0 -795 -3 -799 -12z m1861 -973 c185 -484 338 -883 342
-886 4 -4 104 120 224 275 119 154 402 522 630 817 227 294 436 565 463 602
l50 66 706 1 c388 0 708 -2 710 -5 3 -2 -34 -197 -83 -432 -48 -236 -93 -452
-99 -482 l-11 -53 -141 3 -142 4 -247 -1180 c-136 -649 -247 -1183 -248 -1187
0 -5 61 -8 136 -8 124 0 135 -1 130 -17 -2 -10 -49 -226 -102 -480 l-98 -463
-723 0 c-434 0 -723 4 -723 9 0 5 95 479 210 1052 116 574 209 1048 207 1053
-2 5 -78 -87 -168 -205 -193 -250 -819 -1059 -957 -1236 -53 -68 -98 -123
-101 -123 -3 0 -161 347 -351 771 -189 424 -347 772 -351 774 -3 2 -104 -467
-226 -1043 l-220 -1047 -746 -3 c-411 -1 -747 -1 -747 1 0 2 47 214 105 471
58 258 105 470 105 472 0 2 60 4 134 4 l135 0 17 78 c9 42 126 574 259 1182
l241 1105 -66 6 c-36 4 -102 7 -148 8 -74 1 -83 3 -78 19 3 9 46 224 96 477
50 253 93 466 95 473 4 10 154 12 725 10 l721 -3 335 -880z"/>
</g>
</svg>
